# xmcd
# 
# Track frame offsets:
#   150
#   10672
#   22170
#   36337
#   49275
#   63767
#   75822
#   88112
#   100272
#   113785
#   129654
#   141197
#   153875
#   166217
#   180775
# 
# Disc length: 2614 seconds
# 
# Revision: 2
# Processed by: cddbd v1.5.1PL2 Copyright (c) Steve Scherf et al.
# Submitted via: Synapstar 1.0 
# 
DISCID=b10a340f
DTITLE=Various Artist - The Brick 3 SC 7558
DYEAR=1900
DGENRE=Country
TTITLE0=Tammy Wynette - Your Good Girls's Gonna Go Bad
TTITLE1=Johnny Horton - Honky-Tonk Man
TTITLE2=Kitty Wells - Makin' Believe
TTITLE3=Johnny Horton - Johnny Reb
TTITLE4="Little" Jimmy Dickens - Country Boy
TTITLE5=Glenn Campbell - Try a Little Kindness
TTITLE6=Charlie Walker - Pick Me Up on Your Way Down
TTITLE7=Buck Owens - Excuse Me (I Think I've Got a Heartache)
TTITLE8=Ray Price - I've Got a New Heartache
TTITLE9=Ernest Tubb - Soldier's Last Letter
TTITLE10=Connie Smith - Ain't Had No Lovin'
TTITLE11=Carl Smith - Loose Talk
TTITLE12=Jim Reeves - I Guess I'm Crazy
TTITLE13=Sonny James - It's the Little Things
TTITLE14=Charley Pride - All I Have to Offer You (Is Me)
EXTD=MediaType: Karaoke CD+G Producer: Sound Choice
EXTT0=
EXTT1=
EXTT2=
EXTT3=
EXTT4=
EXTT5=
EXTT6=
EXTT7=
EXTT8=
EXTT9=
EXTT10=
EXTT11=
EXTT12=
EXTT13=
EXTT14=
PLAYORDER=
